<svg id="Layer_1" data-name="Layer 1" xmlns="http://www.w3.org/2000/svg" viewBox="0 0 497.107 265.968">
  <defs>
    <style>
      .cls-1 {
        fill: #fff;
      }
    </style>
  </defs>
  <title>CC logo white 2</title>
  <path class="cls-1" d="M303.749,461.457c1.028-.428-1.111-2.158-1.071-2.138-2.526-1.236-1.463-9.365-1.5-10.606-.164-5.789-4.306-6.4-10.015-5.879-3.666.332-7.015,4.276-7.977,5.541-1.167,1.532.386,3.035,1.457,2.394s7.364-5.02,9.209-3.483c2.57,2.138,1.071,4.873.107,5.193a14.427,14.427,0,0,0-8.352,6.413,13.9,13.9,0,0,0-1.479,9.681c.462,2.509,2.656,4.854,6.554,2.888,1.662-.838,3.855-3.42,4.926-5.558.738-1.473.063,2.1,1.5,1.5C298.182,466.951,301.18,462.525,303.749,461.457Zm-9.209.385a15.4,15.4,0,0,1-3.427,3.484c-1.488.984-2.291-.257-2.142-2.138.228-2.87,5.173-8.382,5.954-6.435A7,7,0,0,1,294.54,461.842Z" transform="translate(-57.5 -390.152)"/>
  <path class="cls-1" d="M312.381,439.952c.149-1.121,3-5.13,4.5-3.206.937,1.2.643,10.261.643,11.543,0,2.043-1.729,5.755-1.5,5.559,3-2.567,9.245-6.928,10.43-7.321.321-.107-1.176-1.273-1.264-2.031a16.361,16.361,0,0,0-.106-2.543c-.067-.271.1-1.807.214-1.625.856,1.412.407,3.312,2.228,5.45,1.526,1.794,7.132.588,4.775,1.443-3.019,1.1-7.5,5.665-9.209,8.551-3.081,5.187-3.591,14.624-9.573,11.67-1.992-.982.951-4.523.323-5.31-.215-.27-5.741,3.238-5.392,5.972-.012,1.421.048,1.657.6,2.363a6.584,6.584,0,0,0,8.857,1.486c3.041-2.116,5.925-13.159,6.9-14.514,3.142-4.384,6.655-8.823,14.992-7.054,2.653.562,6,5.479,4.6,7.687-1.693,2.671-4.174,1.5-3.876,2.139.585,1.245,2.023,4.507,5.913,2.357.662-.366,2.916-2.959,3.221-2.7.873.734-.731,4.892-1.364,6.319a7.157,7.157,0,0,1-8.067,4.08c-4-.84-7.282-10.966-10.28-6.412-2.284,3.468.429,7.309,2.721,9.194,3.311,2.723,11.414,3.844,15.292.221,5.331-4.982,6.545-14.984,2.547-21.022-1.4-2.113-2.7-4.068-6-5.237-4.256-1.507-7.672-1.341-7.672-1.173a28.016,28.016,0,0,0,4.03-2.846c.694-.539.731,1.434,1.071.855,1.113-1.892,3.377-3.131,5.791-3.924.42-.139-1.357-2.265-1.937-3.985-.038-.116-.116-3.444-.1-5.38l.1-20.913c-.275-.945-3.073.7-4.5.642-11.833-.48-20.726-1.5-27.854,7.174-5.414,6.584-6.6,14.2-15.245,16.967-1.936.621-5.024,1.735-7.748.723a6.517,6.517,0,0,1-3.612-7.507c.774-2.389,1.988-5.321,5.259-4.964a2.444,2.444,0,0,1,1.563.992c.874,1.1.743,3.147,1.672,3.946,1.257,1.079,4.733.478,5.834-.794,1.433-1.654.9-4.56.055-6.313A7.145,7.145,0,0,0,298,417.322c-1.828-.937-4.163-1.488-7.83-.488-4.265,1.163-6.758,4.894-7.713,8.414-1.277,4.711,1.023,10.35,5.167,12.241,5.743,2.621,13.034.226,17.432-3.269,4.049-3.218,8.146-8.256,11.691-10.158,2.455-1.318,3.107-1.922,5.917-.313,1.369.784,1.714,2.778,2.17,2.758s1.258-1.9,1.043-4.04c-.333-3.319-5.381-4.339-5.381-4.339a19.532,19.532,0,0,1,4.942-3.725c2.173-1.03,8.661-.87,10.9.358,1.94,1.064,3.563,5.353,1.522,6.852-.886.65-2.74,1.1-4.156,1.712a12.593,12.593,0,0,0-7.038,8.235,45.654,45.654,0,0,0-1.284,6.733s-.7-9.139-5.933-9.139c-4.22,0-5.123,1.466-6.853,3.207-1.327,1.336-2.355,4.809-2.569,4.6-1.184-1.18-1.928-.428-3.213,0a23.176,23.176,0,0,0-5.568,3.206c-.054.574,3.581.021,3.641.856.493,6.908.861,13.8-.856,19.666-.6,2.044,2.959-2.5,5.568-3.635,3.481-1.507,3.275-1.6,4.626-1.709.663-.054-1.264-2.084-1.842-3.207C312.114,451.62,312.381,441.449,312.381,439.952Zm27.07-11.917c.107.642-.321,9.192-.471,9.288s-2.192,2.348-3.17,1.614c-2.236-1.679-1.884-7.872.065-9.736C337.2,427.929,339.362,427.5,339.451,428.035Z" transform="translate(-57.5 -390.152)"/>
  <path class="cls-1" d="M425.379,555.572l.115,42.987a10.059,10.059,0,0,1-.167,2.479,4.19,4.19,0,0,1-1.972,3.016c-2.724,1.314-5.384,1.1-5.581,4.708-.04.731.2.681,1.62.675,8.555-.034,33.606.016,33.772.016,1.11,0,1.217-2.611.834-3.5-.225-.52-1.167-.5-2.834-1.5a8.328,8.328,0,0,1-3.666-3.22l-.016-40.387a20.754,20.754,0,0,1,.042-4.642c.988-4,2.809-5.853,6.264-7.206,2.829-1.108,5.5.726,6.169,4.028a10.009,10.009,0,0,1,.219,2.668l-.052,43.419a9.137,9.137,0,0,1-.792,3.173c-.521,1.523-2.682,1.819-3.555,2.84-1.7,1.979-.465,4.16,1.387,4.16h30.5a4.764,4.764,0,0,0,.525-1.879,2.132,2.132,0,0,0-.777-1.481c-1.631-1.586-3.42-2.919-4.107-5.009a6.042,6.042,0,0,1-.31-2.563l.309-35.213c.012-1.421.011-1.736-.006-3.163a64.3,64.3,0,0,0-1.237-7.308c-2.232-6.269-6.36-9.741-12.267-11.476-6.406-1.881-12.225-1.957-17.5,2.27-1.83,1.466-2.7,2.546-3.852,2.141a23.44,23.44,0,0,1-2.552-1.6,10.483,10.483,0,0,0-4.227-1.091c-6.214-.728-20.464-1.19-22.164-.72-1.776.492-3.673,2.143-2.038,4.475a2.851,2.851,0,0,0,1.166.933c1.212.577,3.216.889,4.193,1.686a17.651,17.651,0,0,1,2.2,3.624A6.4,6.4,0,0,1,425.379,555.572Z" transform="translate(-57.5 -390.152)"/>
  <path class="cls-1" d="M415.666,609.334c4.286,0-5.166-6.834-5.832-7.5a9.5,9.5,0,0,1-1.334-2.668l.1-57.016-26.545-.231c-1.424-.013-1.637.045-2.127.569-1.683,1.8-1.327,3.452.242,4.265,2.034,1.052,5.149,1.563,4.933,4.524a.865.865,0,0,1-.047.242,8.252,8.252,0,0,0-.022,1.7c.224,16,.706,43.484.2,47.988-.136,1.2-.383,1.637-2.029,2.416-2.643,1.25-4.393,3.138-4.705,4.548-.41,1.852,3.057,1.082,7.834,1.168C387.75,609.359,415.334,609.334,415.666,609.334Z" transform="translate(-57.5 -390.152)"/>
  <path class="cls-1" d="M339.085,582.511a126.387,126.387,0,0,1-.6,16.041,6.985,6.985,0,0,1-2.578,4.012c-4.369,2.156-6.624,2.069-5.3,4.859a3.525,3.525,0,0,0,2.761,1.786,9.89,9.89,0,0,0,2.485.16l31.424-.217s1.454-1.5,1.441-2.407a2.483,2.483,0,0,0-1.434-2.339c-1.5-.892-3.02-1.175-4.076-2.309a7.036,7.036,0,0,1-1.554-3.7s.5-39.159.62-39.542c.6-1.928,3.974-3.825,5.554-4.255a35.011,35.011,0,0,1,8.608-1.251c.877-.052.6-9.022.084-10.076-1.7-3.449-6.65-3.184-11.474.016-1.794,1.19-4.389,2.916-4.409,2.71a10.516,10.516,0,0,0-2.125-3.533c-1.1-1.274-2.211-3.534-3.208-3.529-2.292.011-21.737,1.276-24.1,3.621-2.014,2-2.01,3.036.19,4.032,4.748,2.152,5.2,1.325,5.932,3.593C338.661,554.311,339.085,582.511,339.085,582.511Z" transform="translate(-57.5 -390.152)"/>
  <path class="cls-1" d="M223.4,552.112l4.229.036.143,41.758a15.392,15.392,0,0,0,.25,3.145c.912,5.826,4.332,10.078,8.076,11.733a30.5,30.5,0,0,0,9.155,2.447c6.512.744,27.456-5.029,19.166-10.133-.876-.539-3.3.27-4.677.587a7.8,7.8,0,0,1-7.027-2.751c-.633-.719-1.57-.741-1.663-2.159-.57-8.679-.474-17.129-.38-26.273.087-8.475.058-19.725.058-19.725l4.123.03a26.652,26.652,0,0,0,2.914-.083c3.033-.22,4.891-1.72,4.725-5.007a3.514,3.514,0,0,0-2.245-3.38c-2.094-.83-7.962.807-9.27-.865-.507-.647-.561-1.732-.549-3.152l.127-14.562c.013-1.421-.064-1.63-.763-2.093-2.5-1.653-3.476-.741-5.293,1.166a26.543,26.543,0,0,0-2.868,3.449c-.418.623-.78,1.261-1.2,1.9-2.282,3.482-11.08,12.18-14.3,14.225-2.67,1.7-9.041,4.483-7.978,7.738a3.569,3.569,0,0,0,2.761,1.787A10.831,10.831,0,0,0,223.4,552.112Z" transform="translate(-57.5 -390.152)"/>
  <path class="cls-1" d="M89.5,551.115c1.164-9.956,2.92-20.5,10.075-28.626,2.42-2.75,5.206-3.593,9.171-3.668,6.1-.115,9.4,2.106,12.332,6.947,1.5,2.48,3.821,8.593,3.866,10.2.151,5.384-.079,10.685.122,10.9.009.009,14.149.067,13.943,0-.25-.088.634-30.5.574-30.93-.047-.34-3.8-.635-4.011.071-1.089,3.566-1.408,6.755-4.353,5.647-2.043-.77-3.867-3.919-6.1-5.578-4.6-3.416-14.6-4.341-18.253-4.1-12.818.829-30.33,9.732-36.8,20.067-1.576,2.516-7.661,12.15-8.567,16.674-1.285,6.412-10.634,32.007,4.719,56.524,9.4,15.009,34.688,32.74,62.771,18.822,11.013-5.458,14.727-14.621,15.46-26.313.339-5.405-.756-14.039-2.224-17.066-.918-1.895-4.01-5.8-6.014-5.841-2.2-.041-4.915,2.683-4.257,4.352.513,1.3,2.495,2.351,3.784,3.684,4.644,4.8,4.142,18.465,1.894,23.3-4.222,9.09-15.511,17.731-25.053,16.335-9.138-1.338-14.97-6.893-18.957-14.034C86.537,595.79,88.381,560.668,89.5,551.115Z" transform="translate(-57.5 -390.152)"/>
  <path class="cls-1" d="M162.754,553.652c6.349-2.346,14.61-4.788,19.72-.223,4.757,4.25,4.21,15.336.214,15.177-5.354-.214-23.773-2.992-29.769,13.467-4.865,13.354,2.318,26.142,14.286,29.325,6.274,1.67,10.617.371,15.055-4.1a30.666,30.666,0,0,0,3.53-4.686s1.361,2.673,6.2,5.7,12.911,3.794,15.437,3.12c3.623-.968,6.222-4.442,7.1-8.252a2.076,2.076,0,0,0,.012-1.336c-.572-1.174-4.036-1.188-5.782-2.239a5.22,5.22,0,0,1-1.891-2.467,5.872,5.872,0,0,1-.177-2.191s1.008-32.12.327-37.365S202.365,546.557,193.5,543c-8.577-3.439-26.741.619-32.086,3.327-5.283,2.678-5.395,9.023-1,8.561C160.8,554.848,161.417,554.148,162.754,553.652Zm11.413,34.014c-.14-4.628,0-12.166,7.667-12.166,4.17,0,4.167,9.5,4,13.5s-.741,12.732-5.167,12.834C173.333,602,174.166,587.666,174.166,587.666Z" transform="translate(-57.5 -390.152)"/>
  <path class="cls-1" d="M317.607,597.754a6.792,6.792,0,0,1-2.2,1.284c-1.951.938-8.952.772-12.12.106-9.148-1.926-12.361-9.6-13.417-20.32l-.415-4.348c.158.5,34.333.1,34.333.1s-.018-4.282-.064-5.684c-.109-3.408-1.734-13.035-5.935-19.247-3.832-5.668-9.332-10-20.833-9.668-16.2.47-22.471,7.594-25.667,13.834a40.307,40.307,0,0,0-4.166,17.334c-.167,8.832.8,17.335,5.346,25.111,5.11,8.742,15.1,13.819,25.488,14.389,12.166.666,19.833-4.668,22.311-8.246,1.119-1.613,1.008-3.922.045-4.914S318.916,596.492,317.607,597.754Zm-16.749-50.587c11.042-.2,10.5,20.834,10.6,20.734.5-.473-18.937-.068-19.267-.253C292.065,567.577,291.69,547.333,300.858,547.167Z" transform="translate(-57.5 -390.152)"/>
  <path class="cls-1" d="M273.7,394.131a29.836,29.836,0,0,1-3.437-.046c.124-.027-2.96,6.578-4.707,6.076-1.865-.537-4.193-3.549-6.371-4.791-11.347-6.474-29.347-7.807-42.681,2.192-14.648,10.986-23.021,28.806-22.906,50.061.24,44.606,20.246,63.9,50.24,63.273,31.667-.667,35.335-29.689,33.75-43.594-.391-3.431-3.6-13.183-8.417-14.406-3.8-.965-7.666.5-6.166,5.5.217.723,6.631,4.461,7.8,7.484,2.7,7.016-.75,27.319-8.3,32.349-6,4-16.5,4.333-21.334,2.667-22.936-7.907-20.944-31.741-21.333-49.334-.418-18.972-.033-33.2,8.667-46.666,4.247-6.572,8.927-7.9,16.582-7.544,7.31.34,12.225,8.673,13.137,17.467.409,3.947.492,10.463.492,10.463s14.884.2,14.89.082C273.633,424.728,273.7,394.131,273.7,394.131Z" transform="translate(-57.5 -390.152)"/>
  <path class="cls-1" d="M437.7,394a29.8,29.8,0,0,1-3.436-.046c.123-.027-2.961,6.578-4.707,6.075-1.865-.536-4.193-3.548-6.371-4.79-11.347-6.474-29.347-7.807-42.681,2.193-14.648,10.986-23.021,28.8-22.906,50.061.24,44.605,20.246,63.9,50.24,63.272,31.666-.667,35.334-29.689,33.749-43.595-.392-3.431-3.6-13.183-8.417-14.405-3.8-.966-7.666.5-6.166,5.5.217.722,6.631,4.461,7.8,7.483,2.7,7.017-.751,27.32-8.3,32.35-6,4-16.5,4.333-21.334,2.667-22.936-7.908-20.943-31.742-21.332-49.334-.419-18.972-.033-33.2,8.666-46.666,4.247-6.573,8.927-7.9,16.582-7.545,7.311.341,12.226,8.674,13.137,17.467.409,3.948.492,10.464.492,10.464s14.885.2,14.891.081C437.633,424.6,437.7,394,437.7,394Z" transform="translate(-57.5 -390.152)"/>
  <circle class="cls-1" cx="339" cy="135.514" r="10.334"/>
  <path class="cls-1" d="M525.545,572.545c.29,4.66.4,25.539-2.713,30.145-1.713,2.541-6.772,2.873-8.166,0-2.825-5.816-2.5-39.5-2-45.332.361-4.228,2.5-8.168,6.332-8,2.219.1,3.769,2.352,4.349,3.174C525.434,555.492,525.231,567.522,525.545,572.545Zm20.459,42c.938-6.778.142-65.206.142-65.206l8.462-2.767-.375-4.433s-28.158-.627-29.125-.206c-.717.312-1.034,2.225-2,2.269-.763.037-3.169-2.269-7.926-2.922-4.841-.662-15.212,1.062-19.577,4.486-8.5,6.666-6.834,27-6,41.666.58,10.194,10.166,22.834,22.611,22.96,6.242.063,11.279-4.111,11.279-4.111s-.057,4.528-.328,7.667c-.485,5.612-4.08,15.525-8.337,18.3-2.99,1.95-8.976,3.313-8.728,6.06.268,2.97,7.88,3.962,10.4,3.688,7.606-.825,17.7-8.681,21.741-12.795C542.607,624.768,545.066,621.324,546,614.546Z" transform="translate(-57.5 -390.152)"/>
  <g>
    <path class="cls-1" d="M299.91,633.328a6.448,6.448,0,0,0,.888,3.171q1.49,2.281,5.252,2.28a8.991,8.991,0,0,0,3.07-.5,3.519,3.519,0,0,0,2.679-3.469,3.033,3.033,0,0,0-1.135-2.671,11.249,11.249,0,0,0-3.6-1.359l-3.012-.7a13.375,13.375,0,0,1-4.177-1.515,4.849,4.849,0,0,1-2.119-4.3,6.7,6.7,0,0,1,2.083-5.077,8.217,8.217,0,0,1,5.9-1.984,10.047,10.047,0,0,1,5.967,1.742q2.455,1.742,2.455,5.569h-2.922a5.9,5.9,0,0,0-.958-2.828q-1.364-1.8-4.628-1.8a5.2,5.2,0,0,0-3.789,1.155,3.69,3.69,0,0,0-1.153,2.688,2.639,2.639,0,0,0,1.362,2.468,19.48,19.48,0,0,0,4.041,1.25l3.119.734a9.385,9.385,0,0,1,3.481,1.452,5.509,5.509,0,0,1,2.119,4.671q0,3.813-2.7,5.452a11.881,11.881,0,0,1-6.286,1.641,9.245,9.245,0,0,1-6.535-2.187,7.466,7.466,0,0,1-2.315-5.889Z" transform="translate(-57.5 -390.152)"/>
    <path class="cls-1" d="M329.178,624.463a6.332,6.332,0,0,1,2.53,2.163,7.49,7.49,0,0,1,1.118,2.952,19.5,19.5,0,0,1,.248,3.688H320.905a7.227,7.227,0,0,0,1.193,4.1,3.979,3.979,0,0,0,3.457,1.543,4.444,4.444,0,0,0,3.487-1.459,4.969,4.969,0,0,0,1.032-1.962h2.765a5.808,5.808,0,0,1-.726,2.055,7.408,7.408,0,0,1-1.377,1.851,6.485,6.485,0,0,1-3.147,1.688,9.525,9.525,0,0,1-2.279.25,6.981,6.981,0,0,1-5.263-2.273,8.876,8.876,0,0,1-2.157-6.365,9.653,9.653,0,0,1,2.174-6.546,7.149,7.149,0,0,1,5.682-2.515A7.547,7.547,0,0,1,329.178,624.463Zm1.007,6.568a7.321,7.321,0,0,0-.79-2.921,4.043,4.043,0,0,0-3.826-2.031,4.226,4.226,0,0,0-3.222,1.4,5.3,5.3,0,0,0-1.379,3.554Z" transform="translate(-57.5 -390.152)"/>
    <path class="cls-1" d="M336.715,624h2.671v2.89A6.374,6.374,0,0,1,341,624.838a4.169,4.169,0,0,1,2.952-1.211c.052,0,.141,0,.266.016s.338.031.641.063v2.968a4.292,4.292,0,0,0-.461-.062c-.141-.01-.295-.016-.461-.016a4.011,4.011,0,0,0-3.265,1.367,4.767,4.767,0,0,0-1.141,3.147v9.623h-2.812Z" transform="translate(-57.5 -390.152)"/>
    <path class="cls-1" d="M348.673,624l4.468,13.622L357.8,624h3.078l-6.3,16.73h-3L345.408,624Z" transform="translate(-57.5 -390.152)"/>
    <path class="cls-1" d="M363.287,617.784h2.858v3.187h-2.858Zm0,6.3h2.858v16.652h-2.858Z" transform="translate(-57.5 -390.152)"/>
    <path class="cls-1" d="M381.447,624.893q1.772,1.374,2.133,4.732h-2.734a5.044,5.044,0,0,0-1.141-2.569,3.6,3.6,0,0,0-2.858-1.023A3.95,3.95,0,0,0,373,628.653a10.4,10.4,0,0,0-.75,4.2,7.893,7.893,0,0,0,1.063,4.229,4.126,4.126,0,0,0,6.116.65,5.85,5.85,0,0,0,1.413-2.918h2.734a6.613,6.613,0,0,1-7.14,6.405,6.4,6.4,0,0,1-5.233-2.4,9.174,9.174,0,0,1-1.952-5.99,10.094,10.094,0,0,1,2.14-6.858,6.916,6.916,0,0,1,5.452-2.452A7.291,7.291,0,0,1,381.447,624.893Z" transform="translate(-57.5 -390.152)"/>
    <path class="cls-1" d="M396.726,624.463a6.332,6.332,0,0,1,2.53,2.163,7.49,7.49,0,0,1,1.118,2.952,19.5,19.5,0,0,1,.248,3.688H388.453a7.227,7.227,0,0,0,1.193,4.1A3.979,3.979,0,0,0,393.1,638.9a4.444,4.444,0,0,0,3.487-1.459,4.969,4.969,0,0,0,1.032-1.962h2.765a5.808,5.808,0,0,1-.726,2.055,7.408,7.408,0,0,1-1.377,1.851,6.485,6.485,0,0,1-3.147,1.688,9.525,9.525,0,0,1-2.279.25,6.981,6.981,0,0,1-5.263-2.273,8.876,8.876,0,0,1-2.157-6.365,9.653,9.653,0,0,1,2.174-6.546,7.149,7.149,0,0,1,5.682-2.515A7.547,7.547,0,0,1,396.726,624.463Zm1.007,6.568a7.321,7.321,0,0,0-.79-2.921,4.043,4.043,0,0,0-3.826-2.031,4.226,4.226,0,0,0-3.222,1.4,5.3,5.3,0,0,0-1.379,3.554Z" transform="translate(-57.5 -390.152)"/>
    <path class="cls-1" d="M413.447,617.784h3.109V638h11.513v2.733H413.447Z" transform="translate(-57.5 -390.152)"/>
    <path class="cls-1" d="M445.566,617.784v2.733h-7.733v20.215h-3.14V620.518h-7.732v-2.733Z" transform="translate(-57.5 -390.152)"/>
    <path class="cls-1" d="M448.565,617.784h9.173a8.6,8.6,0,0,1,7.245,3.358,12.5,12.5,0,0,1,2.3,7.765,15.644,15.644,0,0,1-1.356,6.607,8.363,8.363,0,0,1-8.217,5.218h-9.142Zm8.563,20.293a8.223,8.223,0,0,0,2.535-.328,5.6,5.6,0,0,0,2.9-2.344,9.739,9.739,0,0,0,1.3-3.562,13.826,13.826,0,0,0,.229-2.405,11.4,11.4,0,0,0-1.657-6.624q-1.658-2.358-5.339-2.359h-5.392v17.622Z" transform="translate(-57.5 -390.152)"/>
    <path class="cls-1" d="M471.825,637.327h3.266v3.405h-3.266Z" transform="translate(-57.5 -390.152)"/>
    <path class="cls-1" d="M497.867,637.358a11.485,11.485,0,1,1,3.358-8.139A11.043,11.043,0,0,1,497.867,637.358Zm-15.091-15.106a9.542,9.542,0,0,0-2.874,6.983,9.654,9.654,0,0,0,2.858,7.029,9.844,9.844,0,0,0,13.966,0,9.977,9.977,0,0,0,0-14.013,9.826,9.826,0,0,0-13.95,0Zm6.748.641a9.618,9.618,0,0,1,3.438.453,3.124,3.124,0,0,1,1.952,3.19,2.752,2.752,0,0,1-1.229,2.486,4.774,4.774,0,0,1-1.819.609,3.051,3.051,0,0,1,2.161,1.233,3.454,3.454,0,0,1,.684,1.95v.921q0,.437.031.936a2.053,2.053,0,0,0,.109.655l.078.156h-2.077c-.011-.041-.021-.083-.031-.124s-.021-.089-.031-.141l-.047-.4v-1q0-2.18-1.187-2.881a5.329,5.329,0,0,0-2.468-.405h-1.75v4.952h-2.219V622.893Zm2.4,1.984a5.771,5.771,0,0,0-2.687-.469h-1.9v4.562h2a6.023,6.023,0,0,0,2.115-.281,2.265,2.265,0,0,0,.462-3.812Z" transform="translate(-57.5 -390.152)"/>
  </g>
</svg>
