<svg id="Layer_1" data-name="Layer 1" xmlns="http://www.w3.org/2000/svg" viewBox="0 0 414 284">
  <defs>
    <style>
      .cls-1 {
        fill: #fff;
        stroke: #fff;
        stroke-miterlimit: 10;
        opacity: 0.6;
      }

      .cls-2 {
        fill: #44070c;
      }
    </style>
  </defs>
  <title>view Banquet Hall</title>
  <rect class="cls-1" x="0.5" y="0.5" width="413" height="283"/>
  <g>
    <path class="cls-2" d="M273.5,389.849l-13.312-34.359h4.922l8.93,24.961q1.078,3,1.8,5.625.8-2.812,1.852-5.625l9.281-24.961h4.641l-13.453,34.359Z" transform="translate(-99 -249.284)"/>
    <path class="cls-2" d="M294.312,360.341v-4.852h4.219v4.852Zm0,29.508V364.958h4.219v24.891Z" transform="translate(-99 -249.284)"/>
    <path class="cls-2" d="M321.991,381.833l4.359.539a10.636,10.636,0,0,1-3.82,5.93,12.942,12.942,0,0,1-15.785-1.254q-3.2-3.363-3.2-9.434,0-6.281,3.234-9.75a10.946,10.946,0,0,1,8.39-3.469,10.641,10.641,0,0,1,8.156,3.4q3.164,3.4,3.164,9.563,0,.375-.023,1.125H307.905a9.565,9.565,0,0,0,2.32,6.281,6.906,6.906,0,0,0,5.2,2.18,6.455,6.455,0,0,0,3.961-1.219A8.09,8.09,0,0,0,321.991,381.833Zm-13.852-6.82h13.9a8.432,8.432,0,0,0-1.594-4.711,6.466,6.466,0,0,0-5.227-2.437,6.7,6.7,0,0,0-4.887,1.945A7.7,7.7,0,0,0,308.14,375.013Z" transform="translate(-99 -249.284)"/>
    <path class="cls-2" d="M336.241,389.849l-7.617-24.891h4.359l3.961,14.367,1.477,5.344q.094-.4,1.289-5.133l3.961-14.578h4.336l3.727,14.438,1.242,4.758,1.43-4.8,4.266-14.391h4.1l-7.781,24.891h-4.383l-3.961-14.906-.961-4.242-5.039,19.148Z" transform="translate(-99 -249.284)"/>
  </g>
</svg>
